<svg width="76" height="19" viewBox="0 0 76 19" fill="none" xmlns="http://www.w3.org/2000/svg"><path d="M.25 16.044h7.677c1.306 0 1.958-.447 1.958-1.34 0-.91-.653-1.357-1.958-1.357H4.785a6.4 6.4 0 0 1-3.64-.739A3.74 3.74 0 0 1 .026 9.465c0-2.868 1.615-4.311 4.861-4.311h7.815v2.868H6.28a6.237 6.237 0 0 0-1.872.189 1.014 1.014 0 0 0-.636 1.065c0 .824.567 1.237 1.718 1.237h3.3c3.092 0 4.638 1.374 4.638 4.105a4.567 4.567 0 0 1-1.065 3.126 3.467 3.467 0 0 1-2.7 1.185H.25v-2.885zm21.041 2.885c-4.62 0-6.933-2.296-6.939-6.888 0-4.6 2.32-6.888 6.94-6.888h5.306v2.868H21.79a4.906 4.906 0 0 0-2.542.464 2.5 2.5 0 0 0-.859 2.113h8.21v2.868h-8.192a2.5 2.5 0 0 0 .824 2.13 5.04 5.04 0 0 0 2.542.429h4.844v2.868h-5.325v.036zM45.063 5.154h7.454c3.78 0 5.685 1.718 5.685 5.153v8.622H48.43a4.46 4.46 0 0 1-3.16-1.031 3.81 3.81 0 0 1-1.1-2.937 4.047 4.047 0 0 1 1.288-3.384 6.916 6.916 0 0 1 4.212-1.013h4.792v-.344a1.9 1.9 0 0 0-.79-1.769 4.93 4.93 0 0 0-2.508-.464h-6.1V5.154zm4.844 10.993h4.552v-2.834h-4.294a3.499 3.499 0 0 0-1.718.309 1.333 1.333 0 0 0-.532 1.237 1.092 1.092 0 0 0 .618 1.134c.446.13.91.182 1.374.154zm14.037 2.783h-3.8V.156h3.8V18.93zm1.353-13.774h2.56v-5h3.64v5h3.847v2.746h-3.847v5.565a3.5 3.5 0 0 0 .464 2.078 2.3 2.3 0 0 0 1.872.636h1.494v2.748h-3.315c-2.783 0-4.157-1.443-4.157-4.311V7.885h-2.558V5.156zM32.696 9.053h-4.208v9.876h4.208V9.053zm5.187-4.019h-4.208v13.878h4.208V5.034zm5.205 2.061H38.88v11.852h4.208V7.095z" fill="#34495D"/></svg>