<svg width="2" height="4" viewBox="0 0 8 10" fill="none" xmlns="http://www.w3.org/2000/svg">
<path d="M2.99988 6.0009L2.99988 1.00131C2.99183 0.867946 3.01218 0.734399 3.05957 0.609484C3.10696 0.48457 3.18032 0.371131 3.2748 0.276662C3.36928 0.182192 3.48273 0.108842 3.60766 0.0614555C3.73258 0.0140703 3.86615 -0.00627245 3.99952 0.00177279C4.13297 -0.00641447 4.26664 0.0138216 4.39168 0.0611429C4.51673 0.108465 4.6303 0.181794 4.72489 0.27628C4.81947 0.370765 4.89292 0.484254 4.94037 0.609241C4.98781 0.734226 5.00818 0.867861 5.00012 1.00131L5.00012 6.0009L8 6.0009L4.00048 10L-8.58512e-07 6.0009L2.99988 6.0009Z" fill="#FB6868"/>
</svg>
