<svg width="76" height="19" viewBox="0 0 76 19" fill="none" xmlns="http://www.w3.org/2000/svg">
<path d="M0.250232 16.044H7.92723C9.23256 16.044 9.88523 15.5973 9.88523 14.704C9.88523 13.794 9.23223 13.347 7.92723 13.347H4.78523C3.52519 13.4661 2.25813 13.2089 1.14423 12.608C0.727534 12.2063 0.409765 11.7133 0.215937 11.1679C0.0221087 10.6225 -0.042488 10.0396 0.0272315 9.46499C0.0272315 6.59699 1.64223 5.15399 4.88823 5.15399H12.7032V8.02199H6.27923C5.64926 7.98997 5.01808 8.05369 4.40723 8.21099C4.19829 8.29307 4.02248 8.44216 3.90738 8.63489C3.79229 8.82763 3.7444 9.05311 3.77123 9.27599C3.77123 10.1 4.33823 10.513 5.48923 10.513H8.78923C11.8812 10.513 13.4272 11.887 13.4272 14.618C13.4746 15.7564 13.0947 16.8713 12.3622 17.744C12.0269 18.1278 11.6111 18.4329 11.1444 18.6377C10.6778 18.8425 10.1717 18.942 9.66223 18.929H0.250232V16.044Z" fill="#34495D"/>
<path d="M21.2912 18.929C16.6706 18.929 14.3576 16.633 14.3522 12.041C14.3522 7.44101 16.6712 5.15302 21.2912 5.15302H26.5982V8.02101H21.7892C20.9157 7.94575 20.0379 8.10597 19.2472 8.48501C18.9467 8.74383 18.7121 9.07043 18.5627 9.43784C18.4134 9.80525 18.3535 10.2029 18.3882 10.598H26.5982V13.466H18.4062C18.3645 13.861 18.4175 14.2602 18.5608 14.6306C18.7041 15.001 18.9336 15.332 19.2302 15.596C20.026 15.957 20.902 16.1048 21.7722 16.025H26.6162V18.893H21.2912V18.929Z" fill="#34495D"/>
<path d="M45.0632 5.15399H52.5172C56.2962 5.15399 58.2022 6.87199 58.2022 10.307V18.929H48.4302C47.2834 19.0053 46.1514 18.636 45.2702 17.898C44.8889 17.5145 44.5937 17.0543 44.404 16.5479C44.2143 16.0415 44.1346 15.5006 44.1702 14.961C44.1073 14.3357 44.191 13.7043 44.4145 13.1169C44.6381 12.5295 44.9954 12.0023 45.4582 11.577C46.7175 10.797 48.194 10.4419 49.6702 10.564H54.4622V10.22C54.5013 9.88138 54.4486 9.53848 54.3096 9.22724C54.1706 8.916 53.9505 8.64788 53.6722 8.45099C52.8914 8.07896 52.0264 7.91894 51.1642 7.98699H45.0642L45.0632 5.15399ZM49.9072 16.147H54.4592V13.313H50.1652C49.5756 13.2692 48.9846 13.3755 48.4472 13.622C48.2567 13.7624 48.107 13.951 48.0135 14.1684C47.92 14.3858 47.8861 14.6241 47.9152 14.859C47.8841 15.0892 47.9273 15.3233 48.0384 15.5273C48.1496 15.7312 48.3229 15.8944 48.5332 15.993C48.979 16.1226 49.4438 16.1747 49.9072 16.147Z" fill="#34495D"/>
<path d="M63.9442 18.93H60.1442V0.156006H63.9442V18.93Z" fill="#34495D"/>
<path d="M65.2972 5.15601H67.8562V0.156006H71.4972V5.15601H75.3442V7.90201H71.4972V13.467C71.4324 14.1911 71.5945 14.9173 71.9612 15.545C72.2063 15.7835 72.5016 15.9644 72.8254 16.0744C73.1492 16.1844 73.4935 16.2208 73.8332 16.181H75.3272V18.929H72.0122C69.2292 18.929 67.8552 17.486 67.8552 14.618V7.88501H65.2972V5.15601Z" fill="#34495D"/>
<path d="M32.6962 9.05301H28.4882V18.929H32.6962V9.05301Z" fill="#34495D"/>
<path d="M37.8832 5.034H33.6752V18.912H37.8832V5.034Z" fill="#34495D"/>
<path d="M43.0882 7.095H38.8802V18.947H43.0882V7.095Z" fill="#34495D"/>
</svg>
