<svg width="2" height="4" viewBox="0 0 8 10" fill="none" xmlns="http://www.w3.org/2000/svg">
<path d="M5.00012 3.9991L5.00012 8.99869C5.00817 9.13205 4.98782 9.2656 4.94043 9.39052C4.89304 9.51543 4.81968 9.62887 4.7252 9.72334C4.63072 9.81781 4.51727 9.89116 4.39234 9.93854C4.26742 9.98593 4.13385 10.0063 4.00048 9.99823C3.86703 10.0064 3.73336 9.98618 3.60832 9.93886C3.48327 9.89153 3.3697 9.81821 3.27511 9.72372C3.18053 9.62923 3.10708 9.51575 3.05963 9.39076C3.01219 9.26577 2.99182 9.13214 2.99988 8.99869L2.99988 3.9991L-6.99224e-07 3.9991L3.99952 6.99298e-07L8 3.9991L5.00012 3.9991Z" fill="#27C19B"/>
</svg>
